<?xml version="1.0" standalone="no"?>
<!DOCTYPE svg PUBLIC "-//W3C//DTD SVG 20010904//EN"
 "http://www.w3.org/TR/2001/REC-SVG-20010904/DTD/svg10.dtd">
<svg version="1.0" xmlns="http://www.w3.org/2000/svg"
 width="1008.000000pt" height="1008.000000pt" viewBox="0 0 1008.000000 1008.000000"
 preserveAspectRatio="xMidYMid meet">
<metadata>
Created by potrace 1.11, written by Peter Selinger 2001-2013
</metadata>
<g transform="translate(0.000000,1008.000000) scale(0.100000,-0.100000)"
fill="#000000" stroke="none">
<path d="M4118 10075 c-1 -1 -48 -6 -103 -9 -106 -7 -139 -10 -275 -27 -92
-11 -131 -17 -170 -24 -14 -3 -38 -7 -55 -9 -32 -5 -76 -13 -112 -21 -13 -3
-33 -7 -45 -10 -13 -2 -65 -14 -116 -26 -52 -11 -99 -22 -105 -23 -7 -1 -18
-5 -24 -9 -7 -5 -13 -6 -13 -3 0 3 -18 -1 -40 -9 -22 -8 -40 -12 -40 -8 0 3
-6 0 -14 -6 -8 -6 -18 -10 -22 -9 -5 2 -22 -2 -39 -9 -16 -6 -70 -24 -120 -39
-49 -15 -142 -48 -205 -72 -63 -24 -119 -45 -125 -46 -5 -1 -32 -12 -59 -24
-27 -12 -50 -22 -52 -22 -1 0 -42 -18 -91 -40 -197 -91 -483 -243 -491 -262
-2 -4 -10 -8 -17 -8 -13 0 -376 -238 -405 -266 -8 -8 -49 -40 -90 -71 -71 -53
-219 -176 -304 -253 -105 -93 -276 -270 -276 -284 0 -9 -4 -16 -8 -16 -13 0
-29 -84 -27 -137 4 -65 37 -133 86 -178 57 -52 102 -68 184 -68 89 -1 137 23
226 112 101 100 220 211 274 256 27 22 53 45 59 50 49 46 303 235 316 235 6 0
10 3 10 8 0 4 37 30 81 57 45 28 87 56 94 63 8 6 21 12 29 12 9 0 16 3 16 8 0
4 28 23 63 42 34 19 71 40 82 47 11 7 37 19 58 29 20 9 37 20 37 25 0 5 4 9
10 9 5 0 71 29 145 65 75 36 142 65 148 65 7 0 19 6 26 13 6 6 15 12 19 12 8
1 140 50 187 70 37 16 221 77 232 77 4 0 15 4 24 9 9 4 27 10 40 13 13 3 49
12 79 21 30 9 64 18 75 19 11 2 20 4 20 5 0 2 7 4 16 6 10 1 50 11 90 20 41
10 85 19 99 20 14 2 26 4 28 5 1 1 11 4 22 5 11 1 21 4 23 5 1 1 13 3 27 5 14
1 39 5 55 8 86 15 165 26 235 32 30 3 75 7 100 10 208 21 559 21 790 -1 19 -1
60 -5 91 -8 31 -3 69 -7 85 -10 16 -3 54 -8 84 -12 30 -3 58 -8 61 -10 3 -1
28 -6 55 -10 27 -3 58 -8 69 -11 11 -2 31 -6 45 -9 26 -4 92 -19 150 -34 19
-5 73 -19 120 -30 88 -22 252 -72 305 -93 17 -7 32 -12 35 -12 3 0 21 -6 40
-14 101 -38 117 -44 135 -52 11 -4 49 -20 85 -35 66 -27 195 -85 240 -109 177
-92 242 -127 250 -135 3 -3 19 -12 35 -20 17 -8 35 -19 40 -23 6 -4 53 -34
105 -67 52 -33 100 -63 105 -68 6 -4 39 -28 75 -52 36 -24 67 -46 70 -49 3 -4
23 -19 45 -36 22 -16 45 -34 52 -40 7 -5 18 -14 25 -20 25 -19 123 -100 128
-105 3 -3 43 -39 89 -80 133 -119 377 -371 420 -434 8 -11 18 -23 22 -26 4 -3
30 -34 58 -70 28 -36 57 -72 66 -81 8 -9 15 -19 15 -23 0 -4 7 -14 15 -23 9
-8 34 -43 57 -77 23 -33 45 -62 50 -64 4 -2 8 -10 8 -18 0 -8 5 -14 10 -14 6
0 10 -4 10 -9 0 -6 20 -39 45 -75 25 -36 42 -66 37 -66 -4 0 -2 -4 4 -8 10 -7
79 -120 116 -192 10 -19 22 -42 27 -50 54 -99 128 -257 190 -410 24 -58 47
-114 52 -125 24 -58 77 -225 72 -225 -3 0 -1 -6 4 -12 6 -7 25 -69 43 -138 18
-69 35 -132 38 -140 3 -8 6 -22 7 -30 1 -8 10 -49 19 -90 25 -112 50 -256 62
-354 3 -22 7 -57 10 -76 3 -19 7 -60 9 -90 2 -30 7 -100 10 -155 12 -179 7
-512 -10 -680 -11 -114 -16 -153 -19 -180 -10 -72 -17 -112 -22 -135 -4 -14
-8 -38 -9 -55 -5 -40 -36 -192 -61 -288 -2 -9 -6 -25 -8 -35 -8 -37 -29 -109
-41 -147 -8 -22 -16 -51 -19 -65 -5 -28 -89 -268 -110 -315 -29 -67 -61 -150
-58 -157 1 -5 -2 -8 -8 -8 -5 0 -10 -5 -10 -11 0 -6 -31 -76 -70 -155 -38 -80
-70 -148 -70 -153 0 -5 -4 -11 -8 -13 -5 -1 -24 -32 -44 -68 -52 -96 -81 -145
-90 -148 -4 -2 -8 -8 -8 -13 0 -11 -139 -227 -161 -249 -8 -8 -27 -35 -44 -60
-16 -25 -34 -50 -40 -56 -5 -6 -21 -26 -35 -44 -28 -38 -72 -92 -80 -100 -3
-3 -18 -21 -34 -40 -151 -185 -423 -449 -641 -619 -49 -39 -94 -74 -100 -79
-5 -4 -26 -18 -45 -32 -19 -13 -37 -27 -40 -30 -12 -13 -102 -70 -110 -70 -6
0 -10 -4 -10 -10 0 -5 -6 -10 -14 -10 -8 0 -16 -3 -18 -8 -8 -18 -300 -188
-438 -255 -47 -22 -88 -45 -92 -51 -4 -6 -8 -8 -8 -3 0 4 -21 -3 -47 -17 -180
-90 -686 -263 -849 -290 -16 -2 -29 -5 -29 -6 0 -2 -9 -4 -20 -6 -11 -1 -33
-6 -50 -9 -16 -4 -38 -7 -47 -8 -10 -1 -18 -5 -18 -10 0 -4 -3 -6 -8 -3 -4 2
-28 1 -52 -4 -48 -9 -85 -15 -225 -35 -167 -23 -288 -30 -575 -29 -225 0 -435
6 -435 13 0 1 -25 4 -55 6 -50 3 -81 8 -150 20 -14 2 -43 7 -65 10 -22 3 -65
10 -95 15 -92 17 -97 18 -170 35 -3 1 -32 7 -65 14 -71 15 -331 88 -360 101
-11 4 -54 20 -95 34 -84 27 -187 66 -240 89 -179 78 -289 131 -425 205 -145
79 -325 191 -460 288 -128 91 -156 105 -226 111 -57 6 -159 -20 -159 -39 0 -4
-5 -8 -10 -8 -6 0 -23 -11 -38 -25 -77 -69 -103 -214 -56 -309 14 -28 39 -64
56 -79 27 -25 147 -113 213 -157 12 -8 49 -33 81 -55 32 -21 68 -44 79 -51 11
-6 66 -39 123 -73 56 -33 106 -61 111 -61 5 0 11 -3 13 -7 2 -5 35 -24 73 -43
39 -19 72 -38 73 -42 2 -5 8 -8 14 -8 6 0 47 -18 92 -39 140 -67 218 -101 232
-101 8 0 14 -4 14 -8 0 -5 6 -9 13 -10 6 0 58 -19 115 -41 117 -45 303 -110
329 -114 10 -1 24 -6 31 -10 6 -5 12 -6 12 -2 0 3 10 1 21 -6 12 -6 31 -13 43
-14 11 -2 39 -9 61 -15 22 -7 49 -13 61 -14 11 -1 27 -6 35 -11 7 -5 23 -10
34 -11 11 -1 30 -5 43 -8 32 -9 51 -13 102 -22 51 -9 59 -11 63 -14 1 -1 11
-3 22 -5 11 -1 36 -5 55 -8 56 -9 103 -17 133 -23 15 -3 51 -8 80 -10 62 -5
121 -12 162 -19 160 -27 885 -27 1010 1 11 2 47 6 80 9 33 2 71 7 85 9 31 6
164 26 207 32 18 2 76 13 129 25 53 11 104 22 113 24 9 1 34 8 56 13 22 6 51
13 65 16 28 5 120 31 265 75 311 94 693 259 984 426 63 36 119 65 123 65 4 0
8 4 8 8 0 5 12 14 27 21 63 29 439 291 456 318 4 7 13 13 18 13 6 0 16 6 23
13 7 6 35 30 62 52 27 22 67 56 89 75 22 19 55 49 74 65 19 17 56 50 82 75 26
25 55 52 66 61 26 23 218 225 283 299 30 35 63 71 73 81 9 11 17 21 17 24 0 3
9 16 21 28 108 115 361 487 508 747 80 142 267 540 254 540 -3 0 -1 6 5 13 17
21 135 350 162 452 5 17 22 80 38 140 30 112 56 223 67 284 3 19 8 38 10 42 3
4 7 23 9 43 3 19 10 61 15 93 6 32 13 78 16 103 3 25 8 56 10 70 10 69 19 159
32 335 10 122 10 523 0 660 -11 167 -16 229 -21 250 -3 11 -8 43 -11 70 -7 67
-19 143 -31 205 -3 14 -7 41 -9 60 -5 36 -11 64 -46 210 -11 47 -22 94 -24
105 -3 19 -51 199 -59 220 -2 6 -4 12 -4 15 -4 17 -123 354 -135 381 -8 19
-32 75 -52 124 -64 153 -211 447 -281 560 -13 22 -27 47 -31 55 -4 8 -26 43
-50 78 -24 35 -43 66 -43 68 0 11 -189 278 -257 364 -143 180 -218 264 -408
456 -172 174 -344 326 -520 458 -142 107 -330 236 -344 236 -6 0 -11 4 -11 9
0 5 -9 13 -20 16 -11 3 -26 12 -33 18 -15 14 -48 34 -92 56 -16 8 -32 17 -35
20 -3 3 -23 15 -45 26 -22 11 -42 22 -45 25 -15 17 -491 243 -535 254 -5 2
-23 8 -40 15 -42 16 -49 19 -56 17 -3 0 -13 5 -22 13 -10 7 -17 10 -17 6 0 -4
-6 -3 -12 2 -13 10 -241 86 -348 116 -30 9 -82 23 -115 33 -33 10 -64 18 -70
18 -5 1 -23 5 -40 9 -16 4 -40 10 -52 12 -13 3 -33 7 -45 10 -27 6 -113 23
-148 30 -31 6 -62 11 -120 20 -25 4 -58 9 -75 11 -16 3 -43 7 -60 9 -16 2 -46
6 -65 9 -19 3 -64 8 -100 11 -36 3 -87 8 -115 11 -60 5 -642 14 -647 9z"/>
<path d="M4240 9123 c0 -4 -24 -8 -53 -9 -59 -1 -240 -14 -265 -19 -9 -1 -39
-6 -67 -9 -78 -10 -119 -16 -145 -21 -13 -3 -40 -7 -60 -10 -115 -17 -315 -67
-360 -90 -64 -33 -120 -99 -137 -165 -14 -50 -6 -138 17 -185 61 -128 180
-180 331 -143 41 9 88 20 105 22 17 3 38 8 46 11 9 4 31 8 50 10 18 2 33 4 33
5 0 3 125 23 225 35 25 3 61 8 80 10 19 3 113 8 208 10 95 3 176 6 180 6 4 1
9 1 12 0 3 -1 48 -4 100 -6 161 -6 348 -27 465 -51 11 -3 36 -7 55 -10 83 -13
360 -86 450 -119 256 -93 500 -206 671 -311 52 -31 106 -64 122 -71 15 -8 27
-19 27 -24 0 -6 5 -7 10 -4 6 3 10 2 10 -2 0 -5 15 -17 33 -28 17 -10 46 -29
62 -42 43 -34 46 -36 85 -63 140 -99 437 -385 570 -550 41 -51 82 -100 90
-109 8 -9 39 -52 69 -96 30 -44 60 -83 65 -87 7 -5 7 -8 1 -8 -6 0 -6 -3 0 -8
6 -4 25 -29 43 -57 17 -27 36 -55 41 -61 5 -7 7 -15 4 -18 -4 -3 -1 -6 5 -6 7
0 12 -4 12 -10 0 -5 14 -33 31 -62 119 -201 240 -486 315 -743 22 -73 63 -236
69 -270 3 -16 10 -52 15 -80 5 -27 11 -63 14 -80 2 -16 5 -30 6 -30 1 0 3 -18
5 -40 2 -22 6 -56 9 -75 13 -92 18 -166 21 -293 2 -75 7 -142 10 -147 3 -6 3
-10 -2 -10 -4 0 -8 -44 -9 -98 -1 -90 -11 -251 -19 -290 -1 -9 -6 -39 -9 -67
-4 -27 -9 -57 -11 -65 -2 -8 -6 -35 -9 -60 -7 -48 -70 -329 -76 -337 -2 -2 -3
-6 -4 -10 -1 -5 -10 -35 -20 -68 -10 -33 -19 -64 -21 -70 -1 -5 -7 -23 -13
-38 -7 -16 -12 -34 -12 -41 0 -6 -5 -17 -12 -24 -7 -7 -9 -12 -6 -12 4 0 0
-17 -9 -37 -8 -21 -20 -49 -26 -63 -6 -14 -11 -27 -12 -30 -1 -6 -22 -54 -62
-144 -15 -34 -40 -83 -55 -109 -15 -26 -28 -52 -28 -58 0 -5 -16 -35 -35 -65
-19 -30 -35 -57 -35 -60 0 -14 -193 -304 -249 -374 -205 -258 -416 -469 -651
-652 -30 -24 -56 -46 -58 -50 -2 -5 -9 -8 -16 -8 -7 0 -21 -8 -32 -18 -10 -10
-57 -43 -104 -73 -160 -105 -195 -125 -232 -140 -16 -6 -28 -15 -28 -19 0 -4
-11 -11 -25 -14 -13 -3 -46 -19 -72 -34 -52 -31 -333 -153 -350 -153 -1 0 -31
-12 -65 -25 -35 -14 -74 -28 -87 -30 -14 -3 -29 -8 -35 -12 -6 -3 -17 -7 -26
-9 -8 -1 -80 -19 -160 -40 -80 -21 -152 -38 -160 -38 -8 1 -19 -2 -25 -6 -5
-4 -32 -10 -60 -13 -45 -6 -140 -20 -220 -31 -16 -3 -64 -7 -105 -11 -175 -13
-255 -62 -301 -184 -48 -128 11 -273 138 -336 55 -28 249 -25 433 6 30 5 71
11 90 14 19 3 46 8 60 11 14 3 39 7 55 10 17 2 59 11 95 20 36 9 74 18 85 20
54 10 84 18 126 31 25 9 52 17 60 18 8 2 21 5 29 8 8 3 67 22 130 43 63 21
140 47 170 60 68 27 90 35 93 33 1 -1 16 5 32 14 17 9 89 44 160 78 145 68
348 179 353 192 2 4 9 8 15 8 9 0 125 76 257 167 30 21 193 145 200 153 3 3
34 30 70 60 169 142 356 332 500 510 19 23 42 50 51 60 8 10 24 31 35 45 10
14 36 50 58 78 72 96 185 275 271 427 47 84 85 153 85 155 0 1 20 45 44 97
127 270 207 504 291 853 6 25 27 133 30 160 2 11 5 32 8 47 37 190 52 387 52
673 0 202 -6 338 -20 440 -2 17 -6 55 -10 85 -8 70 -15 119 -21 148 -4 23 -8
44 -25 132 -6 30 -15 71 -21 90 -5 20 -11 48 -11 63 -1 15 -6 27 -11 27 -4 0
-6 6 -3 14 3 8 3 17 -1 20 -3 4 -7 12 -8 19 -2 7 -12 46 -24 87 -12 41 -23 80
-24 85 -2 6 -6 17 -9 25 -3 8 -13 40 -23 70 -10 30 -22 59 -26 64 -4 6 -8 19
-8 31 0 12 -4 25 -8 31 -5 5 -23 47 -41 93 -18 46 -36 91 -41 100 -4 9 -36 75
-70 146 -34 72 -94 185 -133 253 -40 68 -76 132 -82 143 -5 10 -13 19 -17 19
-5 0 -8 7 -8 15 0 8 -4 15 -10 15 -5 0 -10 5 -10 10 0 12 -74 122 -107 160
-13 13 -23 28 -23 32 0 7 -161 209 -214 267 -61 68 -212 225 -255 265 -24 22
-59 55 -77 72 -18 17 -70 62 -116 100 -46 37 -89 73 -95 79 -52 44 -222 165
-232 165 -5 0 -11 4 -13 8 -1 4 -37 29 -78 55 -41 25 -80 50 -85 54 -6 4 -30
19 -55 32 -25 13 -52 30 -60 36 -21 17 -319 164 -405 199 -38 16 -89 37 -112
48 -23 10 -44 18 -47 18 -2 0 -17 5 -33 12 -15 6 -37 13 -47 15 -11 2 -25 8
-33 14 -7 6 -13 9 -13 6 0 -3 -16 1 -35 9 -19 8 -37 14 -40 14 -5 1 -8 1 -82
24 -118 36 -378 96 -439 101 -11 1 -24 4 -30 7 -5 3 -36 9 -69 12 -33 4 -71 9
-85 11 -76 14 -259 28 -387 29 -51 1 -93 3 -93 6 0 4 -71 4 -77 0 -9 -6 -91
-2 -101 4 -7 4 -12 4 -12 -1z"/>
<path d="M4178 8175 c-2 -2 -39 -6 -83 -10 -122 -10 -152 -13 -255 -31 -151
-27 -360 -81 -465 -120 -11 -4 -26 -8 -34 -10 -17 -3 -111 -41 -179 -71 -29
-12 -55 -23 -57 -23 -5 0 -186 -90 -265 -131 -25 -13 -50 -29 -57 -35 -6 -6
-25 -17 -42 -24 -17 -7 -31 -16 -31 -21 0 -5 -6 -9 -12 -9 -14 0 -205 -135
-243 -170 -12 -11 -24 -20 -28 -20 -4 0 -15 -8 -25 -17 -10 -10 -43 -38 -73
-63 -30 -25 -112 -102 -182 -172 -156 -155 -187 -210 -181 -319 5 -113 61
-197 164 -250 36 -19 61 -24 125 -24 109 0 134 16 323 203 85 83 158 152 163
152 4 0 19 10 33 23 29 26 31 28 121 93 88 63 202 134 214 134 5 0 11 4 13 8
3 8 250 132 262 132 2 0 17 5 33 12 15 6 30 12 33 13 3 0 16 7 30 15 14 7 26
12 28 11 1 -1 53 14 115 34 61 19 123 37 136 40 14 2 68 13 120 24 164 33 248
43 408 45 51 0 93 5 93 9 0 5 4 5 10 2 5 -3 54 -8 107 -10 106 -5 186 -12 218
-18 11 -3 45 -8 75 -12 30 -4 64 -9 75 -12 11 -2 29 -6 40 -8 11 -3 29 -7 40
-9 179 -37 408 -122 601 -221 322 -165 588 -380 812 -655 75 -91 75 -91 102
-130 13 -19 30 -41 37 -48 7 -7 13 -19 13 -26 0 -8 6 -19 14 -25 24 -20 207
-357 212 -391 0 -3 8 -23 18 -45 18 -42 84 -237 90 -264 1 -9 8 -36 15 -61 7
-25 15 -54 17 -65 2 -11 10 -54 19 -95 15 -77 21 -122 32 -245 9 -90 9 -392 0
-470 -15 -134 -21 -177 -27 -195 -1 -3 -2 -8 -1 -13 5 -29 -70 -309 -115 -429
-14 -37 -26 -71 -26 -75 0 -4 -5 -14 -11 -22 -6 -7 -12 -18 -13 -25 -2 -16
-110 -234 -135 -271 -10 -16 -26 -44 -34 -62 -8 -17 -20 -37 -28 -45 -7 -7
-23 -29 -35 -49 -57 -93 -209 -276 -329 -394 -91 -89 -117 -140 -119 -236 -2
-65 2 -83 24 -127 58 -111 139 -164 257 -166 97 -1 156 29 260 131 82 80 240
260 285 323 13 19 28 40 33 45 14 17 137 196 137 199 0 2 18 34 41 71 131 217
289 601 334 815 1 8 8 33 13 55 6 22 13 54 16 70 2 17 9 53 15 82 6 29 13 74
16 100 4 26 8 59 10 72 10 59 19 195 19 293 1 60 5 108 9 108 5 0 5 5 1 12 -4
6 -8 52 -10 102 -2 89 -11 207 -19 256 -5 29 -17 116 -20 145 -1 11 -7 45 -14
75 -6 30 -13 64 -15 75 -3 11 -16 63 -30 115 -14 52 -28 104 -31 114 -2 11
-17 56 -32 100 -15 45 -26 84 -25 89 1 4 -3 7 -8 7 -6 0 -10 6 -10 14 0 15
-43 122 -89 217 -17 36 -31 71 -31 77 0 7 -4 12 -10 12 -5 0 -10 4 -10 10 0 5
-13 32 -30 60 -16 27 -26 50 -22 50 4 0 2 4 -3 8 -6 4 -24 30 -40 57 -28 49
-164 255 -175 265 -3 3 -21 25 -40 50 -107 140 -337 380 -466 485 -84 69 -101
82 -139 110 -22 16 -42 32 -45 35 -3 3 -33 23 -67 45 -35 22 -63 43 -63 48 0
4 -5 7 -11 7 -7 0 -40 18 -75 40 -108 68 -303 165 -449 223 -150 60 -402 139
-447 141 -16 1 -28 4 -28 7 0 3 -6 6 -12 6 -13 1 -39 6 -88 17 -14 3 -41 8
-60 11 -19 2 -46 7 -60 9 -26 5 -107 15 -175 23 -47 5 -492 13 -497 8z"/>
<path d="M4219 7226 c-2 -2 -35 -6 -74 -10 -38 -3 -82 -8 -96 -11 -14 -3 -41
-7 -60 -9 -19 -3 -34 -5 -34 -6 0 -1 -11 -4 -24 -6 -153 -28 -376 -106 -541
-190 -102 -51 -223 -124 -228 -136 -2 -5 -8 -8 -14 -8 -10 0 -121 -82 -191
-142 -80 -68 -145 -134 -170 -174 -37 -60 -53 -161 -34 -214 5 -14 10 -32 12
-41 11 -53 103 -142 172 -167 100 -36 225 -6 309 74 103 98 223 191 304 235
19 11 49 27 65 37 35 21 190 90 215 97 3 0 28 8 55 17 86 29 175 50 280 65 58
9 371 8 430 0 147 -22 404 -96 413 -119 2 -4 11 -8 20 -8 10 0 32 -9 50 -20
17 -11 32 -17 32 -15 0 3 25 -10 55 -30 31 -19 60 -35 65 -35 6 0 10 -4 10
-10 0 -5 6 -10 13 -10 12 0 36 -17 102 -72 18 -16 37 -28 41 -28 12 -1 190
-182 235 -238 19 -24 42 -53 52 -64 9 -12 17 -25 17 -29 0 -4 7 -14 15 -22 27
-28 112 -187 160 -302 31 -73 75 -230 91 -320 21 -125 25 -380 7 -495 -16 -96
-21 -124 -24 -127 -2 -4 -3 -6 -18 -77 -14 -65 -84 -245 -123 -316 -49 -89
-70 -125 -84 -141 -8 -8 -14 -19 -14 -23 0 -4 -6 -14 -12 -21 -27 -30 -38 -44
-38 -50 0 -20 -227 -246 -315 -312 -47 -36 -165 -113 -165 -108 0 4 -12 -2
-27 -13 -106 -74 -371 -162 -573 -189 -61 -9 -353 -8 -417 1 -178 24 -345 78
-535 173 -131 66 -145 71 -207 74 -98 5 -210 -56 -260 -142 -42 -70 -46 -186
-11 -265 32 -74 95 -124 243 -197 206 -101 405 -170 587 -201 19 -3 46 -8 59
-11 142 -27 519 -27 678 1 170 30 451 109 477 135 6 5 16 9 23 9 14 0 224 100
233 111 3 3 19 13 36 22 65 34 222 144 309 217 66 56 198 189 248 249 28 35
57 69 63 75 41 43 178 261 234 374 70 140 141 333 164 447 2 6 8 35 14 65 27
130 36 192 37 257 0 29 3 53 6 53 7 0 3 313 -5 380 -25 216 -71 396 -151 600
-21 52 -44 102 -52 111 -7 8 -13 20 -13 26 0 27 -181 320 -230 374 -8 8 -41
48 -73 87 -131 159 -370 360 -553 463 -75 42 -199 105 -234 119 -19 7 -48 19
-65 25 -58 24 -94 37 -100 36 -3 -1 -19 6 -35 14 -17 9 -30 13 -30 11 0 -3
-19 2 -42 10 -23 8 -54 16 -68 18 -14 2 -32 6 -40 9 -22 8 -107 25 -165 32
-28 4 -61 9 -75 12 -29 6 -405 14 -411 9z"/>
</g>
</svg>
